<?xml version="1.0" encoding="utf-8"?>
<!-- Generator: Adobe Illustrator 19.0.0, SVG Export Plug-In . SVG Version: 6.00 Build 0)  -->
<svg version="1.1" id="Layer_1" xmlns="http://www.w3.org/2000/svg" xmlns:xlink="http://www.w3.org/1999/xlink" x="0px" y="0px"
	 viewBox="0 0 521.2 81" style="enable-background:new 0 0 521.2 81;" xml:space="preserve">
<style type="text/css">
	.st0{fill:#9A9A9B;}
	.st1{fill:#A03123;}
</style>
<g id="Layer_1_1_">
	<path id="XMLID_19_" class="st0" d="M255.2,60.4l-1.8-4.6c-0.4-0.8-1.2-1.4-2-1.4h-21.9h-0.1h-0.1c0,0-13.8,0-17.3,0
		c0-2.5,0-4.4,0-4.4s-0.6-5.3,5.7-5.7l12.5,0.1c21,0,23.5-1.7,23.3-14.5c-0.3-12.9-11.8-14-23.8-14h-0.2h0h-0.1h-25
		c-0.8,0-1.5,0.5-1.9,1.1s-0.4,1.5,0,2.2l2.5,4.6c0.4,0.7,1.1,1.1,1.9,1.1h22.4l0,0c0.1,0,0.1,0,0.2,0c12,0.2,13.1,1.5,13.1,5.3
		c0,3,0,5-10.8,5h-9.5c-9.6-0.3-21.3,1-21.3,12.2v13.7c0,1.2,1,2.2,2.2,2.2l21,0.1h5.2h0.1h0.1h23.7c0.7,0,1.4-0.4,1.8-1
		C255.3,61.7,255.4,61,255.2,60.4z"/>
	<path id="XMLID_18_" class="st0" d="M156.3,31.7h26.9c1,0,1.8-0.6,2.2-1.5l1.5-3.6c0.3-0.7,0.2-1.5-0.3-2.2c-0.5-0.6-1.2-1-2-1
		h-28.9c-11.8,0-17,4.5-17,14.8v9.1c0,10.3,5.3,14.8,17,14.8h28.6c0.7,0,1.5-0.4,1.9-0.9c0.5-0.5,0.6-1.4,0.5-2.1l-1-3.6
		c-0.3-1-1.2-1.7-2.3-1.7h-27.1c-6.7,0-7.3-2.2-7.3-4.7v-2.2h28.6c1.3,0,2.4-1.1,2.4-2.4v-3.6c0-1.3-1.1-2.4-2.4-2.4H149v-2
		C149.1,33.8,149.6,31.7,156.3,31.7z"/>
	<path id="XMLID_17_" class="st0" d="M502.8,23.4l-5.6,1.5c-1.1,0.3-1.9,1.3-1.9,2.5c0,0,0,19.2,0,22.5c-6.5-5.1-29-26-29-26
		c-0.5-0.4-1-0.5-1.5-0.5h-8.3c-1.5,0-2.5,1.2-2.5,2.5v33.2c0,1.4,1.1,2.5,2.5,2.5h5.5c1.4,0,2.5-1.2,2.5-2.5c0,0,0-17,0-24
		c6.5,5.1,29.1,26,29.1,26c0.5,0.4,1,0.5,1.5,0.5h8.3c1.4,0,2.5-1.2,2.5-2.5v-7.3v-26c0-0.8-0.4-1.5-1-2
		C504.4,23.4,503.6,23.2,502.8,23.4z"/>
	<path id="XMLID_16_" class="st0" d="M409.2,31.8h26.9c1.1,0,2-0.6,2.4-1.6l1.5-3.6c0.3-0.8,0.2-1.6-0.3-2.4s-1.3-1.1-2.1-1.1h-28.9
		c-11.9,0-17.2,4.6-17.2,15v9.1c0,10.4,5.3,15,17.2,15h28.6c0.8,0,1.5-0.4,2-1s0.6-1.5,0.5-2.2l-1-3.6c-0.3-1.1-1.3-1.9-2.5-1.9
		h-27.1c-6.5,0-7.1-2.2-7.1-4.5v-2.2h28.5c1.3,0,2.4-1.1,2.4-2.4v-3.6c0-1.3-1.1-2.4-2.4-2.4h-28.5v-1.9
		C402.1,33.9,402.7,31.8,409.2,31.8z"/>
	<path id="XMLID_13_" class="st0" d="M332.4,23.4c-1.4,0-2.5,1.2-2.5,2.5v33.2c0,1.4,1.2,2.5,2.5,2.5h5.5c1.5,0,2.5-1.2,2.5-2.5
		c0,0,0-5.1,0-8c4.4,0,31,0.2,31,0.2c0.1,0,0.2,0,0.2,0c5.8-0.5,9.9-4.8,9.9-10.6v-5.3c0-8.7-4.5-11.9-16.3-11.9L332.4,23.4
		L332.4,23.4z M363.3,32.2c7.6,0,7.6,1,7.6,2.4v5.5c0,0.9,0,2.3-6.3,2.3c0,0-20,0-24.2,0c0-2.8,0-7.4,0-10.2
		C344.6,32.2,363.3,32.2,363.3,32.2z"/>
	<path id="XMLID_10_" class="st0" d="M280.3,23.2c-2.4,0-6.9,0.4-10.3,3.5c-3.7,3.4-3.8,9.3-3.8,9.3v11.5c0,0,0,0.5,0,1.3v0.4l0,0
		c0.2,2.4,0.8,6.6,3.9,9.3c4.1,3.5,7.6,3.5,10.2,3.5H304c0.1,0,0.1,0,0.2,0c2.4,0,6.8-0.5,10.3-3.5c2.9-2.5,3.6-7.2,3.8-8.7h0.1
		V37.5l0,0c0,0,0-0.5,0-1.4V36l0,0c-0.2-2.4-0.9-7-3.9-9.5c-3.7-3.1-7.6-3.5-10.2-3.5L280.3,23.2z M304.5,31.6
		c0.5,0.1,1.7,0.2,2.6,0.8c1.5,1.1,1.6,3.5,1.5,3.6v12.9l-0.1,0.1c0,1.2-0.3,2.5-1.4,3.4c-0.9,0.7-2.7,1-3.1,1l0,0h-23.9
		c0,0-1.5,0.1-3-0.9c-1.3-0.8-1.6-3.5-1.5-3.6V36.1c0-1.2,0.2-2.3,1.4-3.4c1-0.9,3.2-1,3.2-1L304.5,31.6z"/>
	<path id="XMLID_7_" class="st1" d="M55.5,6c2.6-1.2,4.4-2,6.1-1.9c2.4,0.1,2.6,0.3,5.9,2c4.6,2.4,34.2,18.7,34.2,18.7
		c1.5,0.9,2.9,3.4,2.9,6.3s-1.7,5.5-2.9,6.4c0,0-27.7,14.6-37.2,19.6c-2.5,1.3-3.5,1.3-5.9,0c-5.6-2.9-17.1-8.5-17.1-8.5l-3.1,1.7
		c-1,0.5-1.6,1.6-1.6,2.8c0,1.2,0.5,2.3,1.5,2.7c5.3,3.1,15.3,8.5,20.2,11c0.8,0.5,1.9,1.1,3,1.1c1,0,2-0.5,3-0.9
		c10.5-5.2,43.4-22.6,43.4-22.6c2.7-1.5,4.7-3.1,5.4-5.6c0.2-0.7,0.3-1.5,0.3-2.2c0-1.5-0.4-3-1.2-4.2c-1-1.7-2.5-3.5-4.2-4.9
		c0.8,0.5,7.5,3.2,10.9,6.3c3,2.5,8.9,13.1-5.7,20.7c0,0,1.1-0.6-44.2,23.5c-4.8,2.4-5.5,2.9-7.5,3c-2.1-0.2-2-0.1-6.1-2.2
		c-33-18.5-34.2-19.2-34.2-19.2c-1.5-1-2.9-3.4-2.9-6.3c0-3.1,1.7-5.5,2.9-6.4c0,0,27-15.3,37.2-20.4c2.9-1.4,3.3-1.5,5.8,0
		c5.5,2.8,17.2,9.2,17.2,9.2l3.1-1.7c1-0.5,1.6-1.6,1.6-2.8c0-1.2-0.5-2.3-1.5-2.7c-7.1-4.2-17.5-9.5-20.5-11c-1.5-0.7-2-1-2.8-1
		s-1.7,0-3.3,0.7c-9.5,4.4-42.9,22.3-42.9,22.3c-2.7,1.5-5.1,3.3-5.7,5.9c-0.2,0.7-0.3,1.5-0.3,2.2c0,1.5,0.5,3.3,1.3,4.5
		c1.5,2.4,4.1,4.5,4,4.6c0,0.1-3.3-0.8-9.8-5.4c-3-2.1-10.6-12.3,3.3-21C8.1,30.6,43.9,11.4,55.5,6z M60,37.9L60,37.9l-6.8,3.7
		l7.5,4c1.3,0.5,2.5-0.3,2.5-0.3l4.9-2.6l2-1.1l-7.5-4C61.3,37.1,60,37.9,60,37.9z"/>
	<path id="XMLID_2_" class="st0" d="M521.2,28.7c0,3-2.5,5.5-5.5,5.5c-3.1,0-5.5-2.4-5.5-5.5c0-3,2.5-5.5,5.5-5.5
		C518.8,23.2,521.2,25.6,521.2,28.7z M511.8,28.6c0,2.2,1.7,4.1,4,4.1c2.2,0,4-1.8,4-4s-1.7-4.1-4-4.1S511.8,26.4,511.8,28.6z
		 M516.5,31.4l-1.3-2.4h-0.1v2.4h-1.2v-5.6h2c1.4,0,1.9,0.6,1.9,1.5s-0.5,1.5-1.3,1.6c0.1,0.2,0.3,0.5,0.5,0.7l1.1,1.8H516.5
		L516.5,31.4z M515.7,26.7h-0.5v1.5h0.4c0.7,0,1-0.5,1-0.9C516.5,26.9,516.3,26.7,515.7,26.7z"/>
</g>
</svg>
